<svg width="14" height="19" fill="none" xmlns="http://www.w3.org/2000/svg"><path d="M5.081 4.874l.651-.391a.448.448 0 00.192-.552L4.44.38C4.288.017 3.749-.07 3.064.05l2.017 4.823zm4.3 8.859l-.363.219c-.938.565-2.37-1.135-3.768-3.457-1.396-2.32-2.227-4.383-1.29-4.947l.364-.219L2.214.282a6.914 6.914 0 00-1.211.576C-.895 2-.02 6.93 2.956 11.876c2.976 4.946 6.923 8.028 8.82 6.886.384-.231.744-.5 1.076-.8l-3.47-4.229zm4.426 2.216l-2.44-2.974a.448.448 0 00-.578-.089l-.65.392 3.316 4.041c.427-.548.602-1.066.352-1.37z" fill="#fff"/></svg>