<svg width="14" height="19" fill="none" xmlns="http://www.w3.org/2000/svg"><path fill-rule="evenodd" clip-rule="evenodd" d="M13.508 6.765c0-1.86-.659-3.453-1.976-4.778C10.214.662 8.622 0 6.754 0c-1.868 0-3.46.662-4.778 1.987C.659 3.312 0 4.904 0 6.765a6.61 6.61 0 001.34 4.052l4.42 7.658v.011h.011c.239.343.566.514.983.514.364 0 .67-.145.915-.435h.023l.044-.079c.067-.104.12-.193.156-.267l4.254-7.368c.908-1.22 1.362-2.583 1.362-4.086zM9.042 4.51c.648.648.972 1.433.972 2.355 0 .923-.324 1.708-.972 2.356a3.207 3.207 0 01-2.355.971 3.195 3.195 0 01-2.344-.97 3.208 3.208 0 01-.972-2.357c0-.922.324-1.708.972-2.355a3.177 3.177 0 012.344-.982 3.19 3.19 0 012.355.982z" fill="#fff"/></svg>